<?xml version="1.0" encoding="utf-8"?>
<!-- Generator: Adobe Illustrator 22.1.0, SVG Export Plug-In . SVG Version: 6.00 Build 0)  -->
<svg version="1.1" id="Layer_1" xmlns="http://www.w3.org/2000/svg" xmlns:xlink="http://www.w3.org/1999/xlink" x="0px" y="0px"
	 viewBox="0 0 73.3 72.5" style="enable-background:new 0 0 73.3 72.5;" xml:space="preserve">
<style type="text/css">
	.st0{fill:#9F9FA1;}
</style>
<path class="st0" d="M46.6,0H1.9C0.8,0,0,0.8,0,1.9v68.7c0,1.1,0.8,1.9,1.9,1.9h15.8V58.1c0-1.8,1.5-3.3,3.3-3.3h7.9
	c1.8,0,3.3,1.5,3.3,3.3v14.4h14.4c1.1,0,1.9-0.8,1.9-1.9V1.9C48.5,0.9,47.7,0,46.6,0z M14.8,51.5H8.1V45h6.7V51.5z M14.8,39H8.1
	v-6.5h6.7V39z M14.8,26.5H8.1V20h6.7V26.5z M14.8,14H8.1V7.5h6.7V14z M28.4,51.5h-6.7V45h6.7V51.5z M28.4,39h-6.7v-6.5h6.7V39z
	 M28.4,26.5h-6.7V20h6.7V26.5z M28.4,14h-6.7V7.5h6.7V14z M41.9,51.5h-6.7V45h6.7V51.5z M41.9,39h-6.7v-6.5h6.7V39z M41.9,26.5h-6.7
	V20h6.7V26.5z M41.9,14h-6.7V7.5h6.7V14z M71.5,12.8H49.8v57.7c0,0.7-0.2,1.4-0.6,1.9h22.2c1.1,0,1.9-0.8,1.9-1.9V14.7
	C73.4,13.6,72.6,12.8,71.5,12.8z M65.1,65h-6.8v-6.5h6.8V65z M65.1,52.2h-6.8v-6.5h6.8V52.2z M65.1,39.3h-6.8v-6.5h6.8V39.3z
	 M65.1,26.5h-6.8V20h6.8V26.5z"/>
</svg>
